#!OML:ASF E:\VariousWalksJay\Project 1\Capture day 1\Session 1\Actor2.ASF
:FULLY-SPECIFIED
:DEGREES
1025
root 8.77137 11.1689 45.051 197.921 -12.5687 -198.816
lowerback 29.8986 0.957648 8.56815
upperback 15.0638 -0.174917 1.0087
thorax 0.932988 -0.989323 -3.74336
lowerneck -13.3942 -2.82412 -5.05794
upperneck -12.1832 -4.54212 -0.923113
head -1.57348 -2.67448 0.442031
rclavicle 0 -3.33958e-014
rhumerus 41.1671 33.7854 -57.549
rradius 15.2831
rwrist 12.6871
rhand 10.6689 -11.6375
rfingers 7.12502
rthumb 35.7605 -38.0125
lclavicle 0 -3.33958e-014
lhumerus 44.7894 -35.1117 2.31358
lradius 52.559
lwrist 19.7208
lhand 26.2689 -1.95561
lfingers 7.12502
lthumb 50.3236 19.0956
rfemur -77.5435 -37.7621 -10.8602
rtibia 104.415
rfoot -26.0082 -14.5346
rtoes -0.619929
lfemur -53.9013 42.9432 -5.69475
ltibia 95.4857
lfoot 6.88102 2.8145
ltoes -13.2587
1026
root 8.73203 11.1988 44.9235 198.067 -11.7234 -198.736
lowerback 29.1512 0.888428 9.04566
upperback 14.8827 -0.129874 1.3538
thorax 1.08169 -0.929617 -3.64637
lowerneck -13.4585 -2.53461 -4.88545
upperneck -11.882 -4.20998 -1.67256
head -1.49148 -2.51541 0.183388
rclavicle 2.22639e-014 -5.40694e-014
rhumerus 41.639 33.684 -57.0051
rradius 15.255
rwrist 12.3492
rhand 12.2033 -12.1811
rfingers 7.12502
rthumb 37.213 -38.1902
lclavicle 2.22639e-014 -5.40694e-014
lhumerus 43.5776 -34.2212 0.38278
lradius 54.093
lwrist 19.7572
lhand 27.7275 -2.09573
lfingers 7.12502
lthumb 51.6527 18.214
rfemur -77.6462 -37.7326 -10.6609
rtibia 104.252
rfoot -25.9184 -14.6898
rtoes -2.43594
lfemur -54.7443 42.806 -5.42143
ltibia 96.2009
lfoot 11.0167 3.66628
ltoes -7.75734
1027
root 8.69651 11.2269 44.7923 198.153 -10.88 -198.679
lowerback 28.5393 0.718971 9.49031
upperback 14.7403 -0.251644 1.60709
thorax 1.19914 -0.961921 -3.58863
lowerneck -13.1107 -2.18758 -4.90023
upperneck -12.086 -3.83326 -2.18824
head -1.62778 -2.32793 0.0449677
rclavicle -1.01778e-013 -5.40694e-014
rhumerus 42.1629 33.6849 -56.6533
rradius 15.3576
rwrist 12.1943
rhand 13.4868 -12.6103
rfingers 7.12502
rthumb 38.4254 -38.2926
lclavicle -1.01778e-013 -5.40694e-014
lhumerus 41.9003 -33.1774 -1.24616
lradius 55.3089
lwrist 19.5958
lhand 28.0614 -1.80093
lfingers 7.12502
lthumb 51.9559 18.3309
rfemur -77.6074 -37.7121 -10.5463
rtibia 104.107
rfoot -26.0235 -14.8594
rtoes -4.24885
lfemur -55.646 42.7747 -5.26446
ltibia 96.835
lfoot 14.9597 4.64164
ltoes -0.177549
1028
root 8.66632 11.2602 44.6599 198.072 -10.2822 -198.789
lowerback 28.2322 0.327976 9.9615
upperback 14.6463 -0.674667 1.76979
thorax 1.20402 -1.15866 -3.5672
lowerneck -12.5245 -1.81683 -5.14457
upperneck -12.6143 -3.43402 -2.46
head -1.90095 -2.12022 0.0262524
rclavicle 7.31528e-014 3.81667e-014
rhumerus 43.8381 34.4409 -55.2134
rradius 15.1815
rwrist 11.29
rhand 14.609 -12.9036
rfingers 7.12502
rthumb 39.4834 -38.2834
lclavicle 7.31528e-014 3.81667e-014
lhumerus 39.5968 -31.8608 -2.37785
lradius 56.3537
lwrist 19.7018
lhand 29.5882 -1.65026
lfingers 7.12502
lthumb 53.3363 17.6268
rfemur -77.1643 -37.9273 -10.7142
rtibia 103.981
rfoot -26.1551 -14.8537
rtoes -4.22069
lfemur -56.4176 42.5627 -5.26814
ltibia 97.2614
lfoot 17.0328 5.06229
ltoes 4.39822
1029
root 8.63256 11.2701 44.5443 198.38 -8.79587 -198.77
lowerback 27.7991 0.433228 9.94786
upperback 14.5838 -0.576244 1.83473
thorax 1.3388 -1.10446 -3.51842
lowerneck -12.3279 -1.53165 -5.19462
upperneck -13.082 -3.17408 -2.81241
head -2.09782 -2.00298 -0.0621085
rclavicle 3.18055e-014 3.81667e-014
rhumerus 44.7701 34.3502 -54.5499
rradius 15.4951
rwrist 11.2281
rhand 15.5614 -13.195
rfingers 7.12502
rthumb 40.3798 -38.3053
lclavicle 3.18055e-014 3.81667e-014
lhumerus 37.5173 -30.2264 -3.44086
lradius 57.123
lwrist 19.9868
lhand 30.69 -1.10405
lfingers 7.12502
lthumb 54.3262 17.511
rfemur -78.1026 -37.5502 -10.3801
rtibia 103.889
rfoot -26.0951 -14.7541
rtoes -5.35393
lfemur -57.7163 43.2878 -5.78086
ltibia 97.7141
lfoot 15.8503 2.82323
ltoes 2.15844
1030
root 8.60263 11.2919 44.4184 198.142 -8.02967 -198.941
lowerback 27.9364 0.219199 10.1845
upperback 14.644 -0.86575 1.94656
thorax 1.32973 -1.26879 -3.45418
lowerneck -12.155 -1.24775 -5.2079
upperneck -13.5687 -2.92845 -3.17187
head -2.29914 -1.89603 -0.161216
rclavicle -3.49861e-014 -7.95139e-015
rhumerus 46.1878 34.5409 -53.304
rradius 15.6403
rwrist 10.8649
rhand 16.6312 -13.5113
rfingers 7.12502
rthumb 41.3848 -38.3041
lclavicle -3.49861e-014 -7.95139e-015
lhumerus 35.2884 -28.3831 -4.22885
lradius 57.6317
lwrist 20.3944
lhand 30.9249 -0.332661
lfingers 7.12502
lthumb 54.5365 18.1361
rfemur -77.6608 -37.7139 -10.699
rtibia 103.817
rfoot -26.3065 -14.507
rtoes -5.08634
lfemur -58.4406 43.2748 -6.12254
ltibia 97.7721
lfoot 15.2681 0.546077
ltoes -0.0636095
1031
root 8.5747 11.3077 44.3022 198.04 -7.03161 -199.148
lowerback 28.2354 0.280596 10.2175
upperback 14.7337 -0.832321 2.04842
thorax 1.31142 -1.28308 -3.36615
lowerneck -12.5856 -1.09605 -5.0471
upperneck -13.7635 -2.84292 -3.63285
head -2.30749 -1.89471 -0.335858
rclavicle -1.33583e-013 -1.20861e-013
rhumerus 47.6239 34.4036 -51.728
rradius 15.4718
rwrist 11.1949
rhand 16.1183 -12.7415
rfingers 7.12502
rthumb 40.9033 -37.6885
lclavicle -1.33583e-013 -1.20861e-013
lhumerus 33.5343 -26.1188 -4.92952
lradius 57.9608
lwrist 20.716
lhand 31.7166 0.249325
lfingers 7.12502
lthumb 55.2433 18.2106
rfemur -77.6808 -37.754 -10.8975
rtibia 103.751
rfoot -26.2954 -14.3243
rtoes -6.9294
lfemur -59.5534 43.3774 -6.90218
ltibia 97.5638
lfoot 14.803 -0.347905
ltoes -0.458666
